<svg xmlns="http://www.w3.org/2000/svg" viewBox="0 0 382.66 72.6"><defs><style>.cls-1{font-size:48px;fill:#333;font-family:NanumSquareOTFEB-KSCpc-EUC-H, NanumSquareOTF;font-weight:700;}</style></defs><title>자산 1</title><g id="레이어_2" data-name="레이어 2"><g id="레이어_1-2" data-name="레이어 1"><text class="cls-1" transform="translate(53.91 56.66)">GermanWings</text><path d="M35.13,57.37h.12a.94.94,0,0,0,.83-1,147.28,147.28,0,0,1-.94-17.94l.07-8.08a.94.94,0,1,0-1.88,0l-.08,8.08a148.94,148.94,0,0,0,1,18.17A.94.94,0,0,0,35.13,57.37Z"/><path d="M12.47,59.56a44.81,44.81,0,0,0,8.37.86c1.56,0,3.12-.05,4.64-.19a.93.93,0,0,0,.85-1,.92.92,0,0,0-1-.84c-1.46.13-3,.19-4.45.18a42.64,42.64,0,0,1-8-.82.94.94,0,0,0-1.11.73A.92.92,0,0,0,12.47,59.56Z"/><path d="M51,19.94a3,3,0,0,0-2.68-1.65l-9.13-.09,0-5.62a2.81,2.81,0,0,0,2.17-2.7A9.66,9.66,0,0,0,31.79.19L11,0A9.66,9.66,0,0,0,1.22,9.51a2.82,2.82,0,0,0,2.12,2.74L3.1,38.08A146.65,146.65,0,0,1,0,66.51a1.37,1.37,0,0,0,0,.29c0,3.85,10.72,5.71,20.73,5.8S41.53,71,41.56,67.18a1.91,1.91,0,0,0,0-.28Q40.8,63,40.28,59.13L52.4,51.64a2.94,2.94,0,0,0,1.35-1.91C57.36,32.84,51.25,20.46,51,19.94ZM39.13,64.23c-2.08,1.52-8.91,3-18.35,2.89S4.54,65.44,2.48,63.89c.25-1.35.49-2.71.7-4.08,4.55,2.6,10.88,4.11,17.63,4.17s13.1-1.33,17.7-3.84C38.7,61.51,38.91,62.87,39.13,64.23ZM7.67,12.38a2.93,2.93,0,0,1,2.9,2.92l-.05,5.19-5.37,0,.08-8.08ZM5,38.1l.14-15.79,5.37.05-.12,13.33a3.78,3.78,0,0,0,7.55.07l.13-13.33,15.34.14,0,1.83a.95.95,0,0,0,1.89,0l0-1.83,2,0-.15,15.8a149.51,149.51,0,0,0,1.14,19.72c-4.34,2.6-10.65,4-17.41,4s-13-1.63-17.34-4.3A149.52,149.52,0,0,0,5,38.1ZM37.27,20.74l-2,0,0-2.19a.94.94,0,0,0-.93-1,1,1,0,0,0-1,.93l0,2.19-15.34-.14.05-5.19a2.91,2.91,0,0,1,2.95-2.86l16.27.15-.07,8.08ZM39,38.42l.13-14.23,5.65,0a2.12,2.12,0,0,1,2,1.46,44.57,44.57,0,0,1,1.61,19.75,3.83,3.83,0,0,1-1.8,2.73l-7,4.35Q38.94,45.5,39,38.42ZM11,1.87l20.78.19a7.78,7.78,0,0,1,7.74,7.8,1,1,0,0,1-1,.94l-17.45-.16a4.8,4.8,0,0,0-4.86,4.72l-.18,20.38a1.89,1.89,0,0,1-3.78,0l.19-20.39a4.8,4.8,0,0,0-4.77-4.81l-3.63,0a1,1,0,0,1-.95-1A7.77,7.77,0,0,1,11,1.87Zm9.76,68.86C7.91,70.61,2.1,68,1.89,66.88l.21-1a22.2,22.2,0,0,0,6,1.95A69.29,69.29,0,0,0,20.76,69a68.48,68.48,0,0,0,12.66-.94,22.11,22.11,0,0,0,6.06-1.84c.06.34.12.68.19,1C39.44,68.29,33.58,70.85,20.75,70.73ZM51.91,49.34a1.14,1.14,0,0,1-.51.72L40,57.09c-.1-.83-.19-1.65-.28-2.48l7.84-4.84a5.71,5.71,0,0,0,2.67-4.06,46.55,46.55,0,0,0-1.68-20.59,4,4,0,0,0-3.79-2.75l-5.64-.05,0-2.25,9.13.09a1.13,1.13,0,0,1,1,.62C49.55,21.27,55.37,33.08,51.91,49.34Z"/></g></g></svg>